<?xml version="1.0" standalone="no"?>
<!DOCTYPE svg PUBLIC "-//W3C//DTD SVG 20010904//EN"
 "http://www.w3.org/TR/2001/REC-SVG-20010904/DTD/svg10.dtd">
<svg version="1.0" xmlns="http://www.w3.org/2000/svg"
 width="265.000000pt" height="265.000000pt" viewBox="0 0 265.000000 265.000000"
 preserveAspectRatio="xMidYMid meet">
<metadata>
Created by potrace 1.11, written by Peter Selinger 2001-2013
</metadata>
<g transform="translate(0.000000,265.000000) scale(0.100000,-0.100000)"
fill="#000000" stroke="none">
<path d="M797 2479 c-9 -5 -21 -8 -26 -5 -4 3 -19 -8 -31 -24 -12 -16 -26 -27
-31 -25 -4 3 -11 0 -15 -6 -11 -18 -13 -262 -2 -276 6 -7 5 -14 -2 -18 -5 -3
-10 -12 -10 -18 0 -7 4 -6 10 3 6 10 8 -46 4 -160 -10 -288 -8 -380 9 -397 4
-3 -1 -12 -10 -18 -14 -11 -15 -17 -6 -38 7 -14 9 -28 5 -32 -10 -10 -8 -95 2
-95 5 0 3 -7 -4 -15 -7 -8 -9 -15 -5 -15 4 0 3 -6 -2 -12 -10 -12 -22 -61 -28
-115 -2 -13 1 -23 5 -23 5 0 7 -55 4 -122 -2 -68 -4 -189 -5 -270 -2 -116 -5
-145 -15 -141 -9 3 -12 -2 -9 -16 2 -11 0 -23 -6 -26 -15 -10 -10 -35 6 -35 8
0 15 -7 15 -15 0 -8 -7 -15 -15 -15 -12 0 -13 -4 -3 -25 6 -14 18 -25 25 -25
8 0 12 -4 8 -9 -3 -5 -1 -12 5 -16 6 -4 8 -11 4 -16 -7 -12 34 -99 47 -99 6 0
8 -4 5 -9 -3 -5 5 -12 19 -15 13 -3 29 -15 35 -26 11 -21 70 -29 70 -9 0 5 8
9 18 8 9 -1 24 1 32 4 15 6 396 19 478 17 24 0 42 3 39 7 -3 4 36 7 86 6 71
-1 91 -5 89 -15 -3 -10 -1 -11 9 -1 15 15 105 18 113 4 4 -5 -4 -7 -16 -5 -18
4 -19 3 -5 -4 19 -8 95 -7 141 3 16 3 34 1 42 -6 10 -8 22 -8 45 0 19 6 37 7
48 2 19 -11 137 10 125 22 -4 4 0 7 10 7 26 0 49 27 41 48 -13 28 -13 54 -1
42 17 -17 26 -11 22 18 -8 57 -16 66 -61 63 -17 -1 -16 1 4 9 23 10 24 11 5
25 -24 18 -95 19 -113 3 -11 -10 -13 -10 -7 0 5 9 -3 12 -31 12 -36 1 -37 1
-18 16 19 15 19 15 -10 9 -16 -4 -38 -9 -47 -12 -10 -2 -53 6 -95 18 -79 22
-129 29 -238 32 -33 1 -66 6 -73 10 -7 5 -29 11 -50 13 -20 2 -71 9 -112 15
-93 14 -260 26 -267 19 -2 -3 -10 -5 -16 -6 -7 0 -20 -2 -30 -2 -10 -1 -16 -5
-14 -9 3 -5 -6 -16 -19 -26 -27 -20 -25 -24 -28 64 0 28 2 53 7 56 11 7 8 53
-4 53 -5 0 -7 5 -3 12 4 6 8 30 9 52 1 23 5 58 9 80 5 26 4 36 -3 31 -15 -9
-14 14 2 29 9 9 10 42 6 132 -5 84 -3 121 5 127 8 6 8 10 -1 14 -7 2 -13 21
-13 42 0 20 6 43 13 50 10 11 10 13 0 7 -10 -5 -13 6 -14 41 -2 73 -1 167 1
173 1 3 1 15 0 28 -1 12 3 22 9 22 6 0 11 5 11 11 0 5 -4 7 -10 4 -6 -3 -10 0
-10 9 0 8 6 17 13 19 9 4 9 7 0 14 -13 9 -15 73 -2 73 4 0 5 9 2 21 -3 12 0
24 6 28 19 12 20 473 2 529 -8 23 -18 42 -23 42 -5 0 -7 4 -3 9 3 5 -4 12 -15
16 -11 3 -20 11 -20 16 0 5 -7 9 -15 9 -8 0 -15 4 -15 9 0 5 -9 11 -20 14 -11
3 -20 0 -20 -6 0 -8 -4 -7 -12 1 -14 14 -18 14 -41 1z"/>
</g>
</svg>
