<?xml version="1.0" standalone="no"?>
<!DOCTYPE svg PUBLIC "-//W3C//DTD SVG 20010904//EN"
 "http://www.w3.org/TR/2001/REC-SVG-20010904/DTD/svg10.dtd">
<svg version="1.0" xmlns="http://www.w3.org/2000/svg"
 width="374.000000pt" height="374.000000pt" viewBox="0 0 374.000000 374.000000"
 preserveAspectRatio="xMidYMid meet">
<metadata>
Created by potrace 1.11, written by Peter Selinger 2001-2013
</metadata>
<g transform="translate(0.000000,374.000000) scale(0.100000,-0.100000)"
fill="#000000" stroke="none">
<path d="M1416 2905 c-8 -8 -18 -15 -23 -15 -20 0 -34 -46 -34 -113 0 -92 -2
-119 -13 -136 -8 -12 -9 -97 -6 -284 1 -41 5 -55 13 -51 8 5 8 2 0 -7 -15 -16
-17 -49 -3 -49 6 0 10 -8 10 -17 0 -15 -2 -16 -10 -3 -7 11 -10 5 -10 -23 0
-28 3 -36 13 -31 7 5 7 1 -2 -10 -12 -14 -12 -19 -2 -26 11 -6 11 -9 0 -14
-11 -5 -11 -7 -1 -12 16 -7 16 -36 0 -52 -9 -9 -10 -15 -2 -20 17 -11 25 -42
11 -42 -9 0 -9 -2 -1 -8 13 -8 7 -72 -7 -72 -5 0 -9 -9 -9 -20 0 -11 3 -20 8
-20 4 0 7 -13 7 -30 1 -16 -4 -30 -10 -30 -5 0 -3 -5 5 -10 12 -8 12 -10 -5
-10 -16 0 -17 -2 -6 -9 12 -7 12 -13 3 -24 -7 -7 -9 -17 -5 -20 3 -4 0 -13 -6
-21 -7 -8 -8 -17 -4 -19 5 -3 10 -22 11 -42 2 -20 -1 -34 -6 -31 -4 3 -7 -9
-6 -27 2 -45 2 -44 26 -50 17 -5 19 -9 10 -20 -7 -8 -8 -18 -4 -22 4 -5 1 -5
-5 -1 -8 4 -13 2 -13 -6 -1 -8 -5 -7 -14 5 -13 16 -14 14 -14 -20 -1 -29 5
-43 24 -59 l26 -21 -31 -6 c-20 -4 -31 -13 -31 -23 0 -13 3 -14 14 -5 10 8 16
9 21 1 3 -5 1 -10 -5 -10 -8 0 -8 -6 0 -20 9 -17 8 -20 -10 -20 -22 0 -25 -7
-10 -30 6 -9 5 -17 -2 -22 -9 -5 -9 -13 0 -32 10 -22 9 -26 -3 -26 -8 0 -15
-4 -15 -10 0 -5 7 -10 16 -10 11 0 14 -4 7 -12 -13 -19 -16 -70 -4 -77 6 -4
12 -19 13 -34 3 -31 17 -36 113 -36 150 -1 161 -1 140 9 -18 7 -18 9 -2 11 9
1 23 2 30 3 6 1 23 -5 37 -14 15 -9 21 -10 17 -3 -10 16 4 16 55 1 31 -9 44
-9 60 1 12 7 24 9 31 3 7 -5 32 -8 57 -7 26 1 55 -4 69 -12 13 -8 21 -10 17
-5 -9 14 24 20 52 10 13 -4 29 -5 35 -1 16 10 170 12 182 3 12 -10 65 -8 65 3
0 4 12 7 26 7 15 0 45 5 67 12 34 10 41 10 51 -4 10 -13 15 -14 29 -3 10 7 26
11 37 8 12 -3 22 3 30 17 8 15 8 20 1 16 -6 -4 -11 -3 -11 3 0 5 8 15 18 21
11 8 13 13 5 16 -7 3 -10 11 -7 19 3 7 -3 16 -15 20 -12 3 -21 11 -21 16 0 5
-5 9 -11 9 -5 0 -7 -4 -4 -10 3 -5 -1 -10 -9 -10 -8 0 -19 7 -24 16 -7 13 -13
14 -30 5 -26 -14 -94 -17 -156 -8 -36 6 -51 5 -58 -5 -7 -10 -11 -9 -19 5 -6
11 -21 17 -42 16 -30 -1 -30 -1 -7 -8 23 -7 23 -8 5 -13 -28 -9 -190 -3 -205
7 -10 6 -12 4 -7 -7 3 -10 -3 -19 -19 -27 -23 -10 -24 -9 -14 8 5 11 10 21 10
23 0 2 -80 2 -177 0 -135 -2 -178 0 -184 10 -6 10 -11 9 -21 -4 -30 -38 -72
-17 -44 21 9 12 8 13 -4 6 -12 -6 -13 -5 -2 6 15 16 16 49 1 49 -8 0 -8 4 0
13 8 10 6 19 -8 34 -19 20 -19 20 0 34 12 8 15 15 7 20 -6 4 -7 12 -2 20 13
21 13 39 1 39 -8 0 -7 3 1 9 11 7 11 11 -2 23 -17 18 -11 29 10 21 21 -8 13
20 -10 33 -17 10 -17 12 9 18 19 5 24 10 18 19 -5 7 -8 33 -7 60 2 26 0 47 -4
47 -4 0 -8 9 -8 20 0 11 3 20 6 20 3 0 6 9 6 20 0 11 -4 20 -7 20 -4 0 -4 12
1 28 4 15 9 34 11 42 2 8 11 20 19 27 10 9 11 12 3 13 -16 0 -17 30 -2 30 8 0
8 5 -1 15 -10 12 -10 15 0 15 9 0 9 4 3 13 -13 15 -15 75 -3 82 6 4 4 14 -3
26 -10 16 -9 21 2 28 11 7 10 10 -4 12 -18 4 -18 5 -1 22 10 10 13 17 6 17
-12 0 -11 5 6 69 5 17 4 22 -4 17 -8 -5 -12 0 -12 13 0 12 4 21 8 21 11 0 10
81 -1 98 -5 7 -4 19 3 27 10 12 10 15 -1 15 -11 0 -11 3 1 11 12 8 12 12 2 16
-8 3 -10 9 -4 16 5 7 12 41 15 77 4 36 8 76 11 90 15 84 26 211 20 245 -6 35
-33 70 -56 70 -3 0 -10 3 -14 8 -13 12 -52 8 -68 -8z m38 -1731 c3 -8 2 -12
-4 -9 -6 3 -10 10 -10 16 0 14 7 11 14 -7z m291 6 c3 -5 1 -10 -4 -10 -6 0
-11 5 -11 10 0 6 2 10 4 10 3 0 8 -4 11 -10z m-400 -20 c3 -6 -1 -7 -9 -4 -18
7 -21 14 -7 14 6 0 13 -4 16 -10z"/>
<path d="M1305 1430 c3 -5 8 -10 11 -10 2 0 4 5 4 10 0 6 -5 10 -11 10 -5 0
-7 -4 -4 -10z"/>
<path d="M1600 1040 c0 -5 5 -10 11 -10 5 0 7 5 4 10 -3 6 -8 10 -11 10 -2 0
-4 -4 -4 -10z"/>
<path d="M2130 1030 c0 -6 7 -10 15 -10 8 0 15 2 15 4 0 2 -7 6 -15 10 -8 3
-15 1 -15 -4z"/>
</g>
</svg>
